<?xml version="1.0" encoding="UTF-8" standalone="no"?>
<svg
   viewBox="0 0 32 32"
   height="128"
   width="128"
   version="1.1"
   id="svg4"
   sodipodi:docname="pepper.svg"
   xml:space="preserve"
   inkscape:version="1.2.2 (732a01da63, 2022-12-09)"
   xmlns:inkscape="http://www.inkscape.org/namespaces/inkscape"
   xmlns:sodipodi="http://sodipodi.sourceforge.net/DTD/sodipodi-0.dtd"
   xmlns="http://www.w3.org/2000/svg"
   xmlns:svg="http://www.w3.org/2000/svg"><defs
     id="defs8"><inkscape:path-effect
       effect="bspline"
       id="path-effect1067"
       is_visible="true"
       lpeversion="1"
       weight="33.333333"
       steps="2"
       helper_size="0"
       apply_no_weight="true"
       apply_with_weight="true"
       only_selected="false" /><inkscape:path-effect
       effect="bspline"
       id="path-effect1063"
       is_visible="true"
       lpeversion="1"
       weight="33.333333"
       steps="2"
       helper_size="0"
       apply_no_weight="true"
       apply_with_weight="true"
       only_selected="false" /><inkscape:path-effect
       effect="bspline"
       id="path-effect1059"
       is_visible="true"
       lpeversion="1"
       weight="33.333333"
       steps="2"
       helper_size="0"
       apply_no_weight="true"
       apply_with_weight="true"
       only_selected="false" /><inkscape:path-effect
       effect="bspline"
       id="path-effect1055"
       is_visible="true"
       lpeversion="1"
       weight="33.333333"
       steps="2"
       helper_size="0"
       apply_no_weight="true"
       apply_with_weight="true"
       only_selected="false" /><inkscape:path-effect
       effect="bspline"
       id="path-effect1051"
       is_visible="true"
       lpeversion="1"
       weight="33.333333"
       steps="2"
       helper_size="0"
       apply_no_weight="true"
       apply_with_weight="true"
       only_selected="false" /><inkscape:path-effect
       effect="bspline"
       id="path-effect462"
       is_visible="true"
       lpeversion="1"
       weight="33.333333"
       steps="2"
       helper_size="0"
       apply_no_weight="true"
       apply_with_weight="true"
       only_selected="false" /></defs><sodipodi:namedview
     id="namedview6"
     pagecolor="#505050"
     bordercolor="#ffffff"
     borderopacity="1"
     inkscape:showpageshadow="0"
     inkscape:pageopacity="0"
     inkscape:pagecheckerboard="1"
     inkscape:deskcolor="#505050"
     showgrid="false"
     inkscape:zoom="3.9140625"
     inkscape:cx="47.265469"
     inkscape:cy="97.341317"
     inkscape:window-width="2560"
     inkscape:window-height="1377"
     inkscape:window-x="1912"
     inkscape:window-y="-8"
     inkscape:window-maximized="1"
     inkscape:current-layer="layer1" /><g
     inkscape:groupmode="layer"
     id="layer3"
     inkscape:label="Layer 3"
     style="display:inline"><path
       style="fill:#000000;fill-opacity:1;stroke:#56ff00;stroke-width:0;stroke-dasharray:none;stroke-opacity:1"
       d="M 13.909798,10.753224 C 13.280407,10.451205 11.462746,9.8045111 10.141316,9.5422945 8.8198858,9.2800779 7.994902,9.4024949 7.3520472,9.8722884 6.7091924,10.342082 6.2487983,11.159082 6.075849,12.004173 c -0.1729492,0.845091 -0.058514,1.717994 0.1077837,1.654066 0.1662976,-0.06393 0.3845191,-1.064552 0.6612988,-1.962806 0.2767797,-0.898253 0.6120957,-1.693963 1.7180817,-1.7977724 1.105986,-0.1038092 2.9821598,0.4843244 4.1997328,0.7996634 1.217572,0.315339 1.776443,0.357919 1.147052,0.0559 z"
       id="path460"
       inkscape:path-effect="#path-effect462"
       inkscape:original-d="M 15.097804,11.097804 C 13.280356,10.451348 11.462695,9.804654 9.6447105,9.1576845 8.8199275,9.2803588 7.9949437,9.4027758 7.1696607,9.5249501 6.709489,10.342249 6.2490949,11.159249 5.7884233,11.976048 c 0.11469,0.873188 0.2291255,1.746091 0.3433132,2.618762 0.2184846,-1.000435 0.4367061,-2.00106 0.6546907,-3.001996 0.3355861,-0.795507 0.6709019,-1.591217 1.0059879,-2.3872251 1.8765351,0.5884188 3.7527089,1.1765531 5.6287429,1.7644711 0.559143,0.04283 1.118014,0.08541 1.676646,0.127744 z"
       sodipodi:nodetypes="ccccccccc" /><path
       style="fill:#000000;fill-opacity:1;stroke:#56ff00;stroke-width:0;stroke-dasharray:none;stroke-opacity:1"
       d="m 19.308202,10.781214 c 0.364514,-0.311527 1.178885,-0.8437953 1.969405,-1.1125721 0.790521,-0.2687767 1.556972,-0.2740993 2.211664,0.016124 0.654693,0.2902231 1.197596,0.8757073 1.604688,1.9562403 0.407093,1.080534 0.678545,2.656019 0.638577,4.276746 -0.03997,1.620727 -0.391259,3.286695 -0.984752,5.245442 -0.593494,1.958746 -1.429139,4.210197 -2.312667,5.679181 -0.883529,1.468985 -1.814981,2.155598 -2.187614,2.310018 -0.372632,0.154421 -0.186342,-0.223482 0.196672,-0.636973 0.383015,-0.413491 0.96263,-0.862406 1.460646,-1.517499 0.498016,-0.655093 0.914462,-1.516422 1.303026,-2.440555 0.388564,-0.924133 0.7492,-1.910996 1.059942,-2.947818 0.310742,-1.036822 0.571543,-2.12352 0.760506,-2.99489 0.188963,-0.87137 0.306057,-1.527326 0.306543,-2.486039 4.87e-4,-0.958712 -0.115694,-2.220139 -0.342038,-3.183283 -0.226344,-0.963143 -0.562952,-1.627918 -0.994217,-2.125847 -0.431266,-0.497928 -0.957277,-0.8288343 -1.574335,-0.879785 -0.617057,-0.050951 -1.32496,0.178298 -1.891885,0.447295 -0.566924,0.268996 -0.992731,0.577706 -1.248122,0.686966 -0.25539,0.10926 -0.340552,0.01877 0.02396,-0.292751 z"
       id="path1049"
       inkscape:path-effect="#path-effect1051"
       inkscape:original-d="m 18.858283,11.001996 c 0.814622,-0.532019 1.628993,-1.0642875 2.443114,-1.5968063 0.766733,-0.00507 1.533184,-0.010395 2.299401,-0.015968 0.543176,0.5857575 1.086079,1.1712413 1.628742,1.7564873 0.271712,1.575796 0.543165,3.151281 0.814372,4.726547 -0.351054,1.666284 -0.702345,3.332252 -1.053892,4.998003 -0.835429,2.251793 -1.671074,4.503244 -2.506986,6.754492 -0.931239,0.686889 -1.862691,1.373503 -2.794411,2.05988 0.186547,-0.37767 0.372838,-0.755572 0.558882,-1.133733 0.5799,-0.448692 1.159515,-0.897607 1.738914,-1.346798 0.416719,-0.861127 0.833164,-1.722456 1.249384,-2.584084 0.360908,-0.986673 0.721545,-1.973536 1.081954,-2.960708 0.261067,-1.086512 0.521868,-2.17321 0.782435,-3.260223 0.117351,-0.655746 0.234445,-1.311702 0.351296,-1.967947 -0.115938,-1.261252 -0.232119,-2.522679 -0.348557,-3.784431 -0.336377,-0.664564 -0.672985,-1.329339 -1.009862,-1.994403 -0.525794,-0.330676 -1.051805,-0.6615829 -1.578099,-0.9927596 -0.707682,0.2295085 -1.415585,0.4587576 -2.123753,0.6877616 -0.425573,0.308972 -0.85138,0.617682 -1.277445,0.926148 -0.08491,-0.09024 -0.170076,-0.180721 -0.255489,-0.271458 z"
       sodipodi:nodetypes="cccccccccccccccccccc" /><path
       style="fill:#000000;fill-opacity:1;stroke:#56ff00;stroke-width:0;stroke-dasharray:none;stroke-opacity:1"
       d="M 14.371475,9.7434062 C 14.286395,9.5703429 14.265105,9.5596977 13.908457,9.2297301 13.551808,8.8997625 12.859872,8.2504076 12.146634,7.8777159 11.433397,7.5050243 10.698881,7.4092179 10.062735,7.4783711 9.4265883,7.5475244 8.8890076,7.781718 8.5163335,8.0984951 8.1436593,8.4152721 7.9360787,8.8144657 7.7950277,9.1445102 7.6539767,9.4745548 7.5794605,9.7353613 7.651405,9.820415 7.7233494,9.9054688 7.9415754,9.8149849 8.1091534,9.6048329 8.2767314,9.394681 8.3938282,9.0646807 8.6120993,8.7665257 8.8303703,8.4683707 9.1497251,8.2022417 9.6501671,8.0425618 10.150609,7.8828818 10.831899,7.829656 11.36154,7.9308959 c 0.52964,0.1012399 0.907544,0.3567237 1.312056,0.6920825 0.404512,0.3353588 0.835641,0.7505201 1.18694,1.091176 0.351299,0.3406556 0.622751,0.6067846 0.683901,0.5722116 0.06115,-0.03457 -0.08788,-0.3698965 -0.172962,-0.5429598 z"
       id="path1053"
       inkscape:path-effect="#path-effect1055"
       inkscape:original-d="m 14.307385,9.5808382 c -0.02104,-0.010395 -0.04233,-0.02104 -0.06387,-0.031936 C 13.5518,8.8997712 12.859864,8.2504162 12.167665,7.6007984 11.433369,7.5052379 10.698853,7.4094317 9.9640718,7.3133732 9.4267198,7.5478262 8.889139,7.7820197 8.3512975,8.015968 8.1439585,8.4154277 7.9363778,8.8146212 7.728543,9.2135727 7.6542738,9.4746397 7.5797578,9.7354462 7.50499,9.996008 7.7234745,9.9057705 7.9417005,9.8152865 8.1596808,9.724551 8.277032,9.3947877 8.394129,9.0647874 8.510978,8.7345309 8.8305958,8.4686412 9.1499505,8.2025122 9.469062,7.9361277 10.15063,7.8831497 10.83192,7.829924 11.512974,7.776447 c 0.378169,0.2557442 0.756072,0.5112282 1.133733,0.7664672 0.431396,0.415428 0.862525,0.8305893 1.293413,1.245509 0.271712,0.2663898 0.543164,0.5325188 0.814371,0.7984028 -0.148788,-0.335086 -0.29782,-0.6704083 -0.447106,-1.0059878 z" /><path
       style="fill:#000000;fill-opacity:1;stroke:#56ff00;stroke-width:0;stroke-dasharray:none;stroke-opacity:1"
       d="m 16.819719,10.347284 c 0.420498,-0.340655 1.069866,-0.8569563 1.591538,-1.2002848 0.521672,-0.3433284 0.915542,-0.5136511 1.285523,-0.6174299 0.369981,-0.1037789 0.715949,-0.1410368 1.067271,-0.1490009 0.351323,-0.00796 0.707936,0.013326 1.093852,0.087883 0.385917,0.074557 0.801079,0.2022991 1.218881,0.5031218 0.417803,0.3008226 0.838278,0.7745223 1.133647,1.1923807 0.295369,0.417858 0.465692,0.779793 0.431142,0.832996 -0.03455,0.0532 -0.274061,-0.202276 -0.4737,-0.465736 C 23.968234,10.267755 23.80856,9.9963081 23.542474,9.7221411 23.276388,9.4479741 22.903814,9.1712048 22.440732,8.9901475 21.97765,8.8090902 21.424101,8.7239289 20.891783,8.731873 20.359465,8.7398171 19.848506,8.8409444 19.358758,9.0165915 18.86901,9.1922387 18.400623,9.4424001 18.02,9.7192093 c -0.380622,0.2768093 -0.673359,0.5801897 -0.992659,0.8010577 -0.319301,0.220868 -0.665269,0.359255 -0.742501,0.345964 -0.07723,-0.01329 0.114381,-0.178291 0.534879,-0.518947 z"
       id="path1057"
       inkscape:path-effect="#path-effect1059"
       inkscape:original-d="m 16.590818,10.522954 c 0.649618,-0.51605 1.298986,-1.0323513 1.948104,-1.548902 0.394137,-0.1700795 0.788008,-0.340402 1.181637,-0.5109783 0.346232,-0.037009 0.692199,-0.074268 1.037924,-0.1117762 0.356877,0.02154 0.71349,0.042832 1.06986,0.063872 0.415428,0.127997 0.83059,0.255739 1.245509,0.3832335 0.420751,0.4739789 0.841226,0.9476784 1.261477,1.421158 0.17058,0.3622 0.340903,0.724135 0.510979,1.085828 C 24.607032,11.050145 24.36752,10.794667 24.127744,10.538922 23.96831,10.26771 23.808636,9.9962633 23.648703,9.7245509 23.276357,9.4480157 22.903783,9.1712464 22.530938,8.8942114 21.977618,8.8092969 21.424069,8.7241355 20.870259,8.6387225 c -0.510737,0.1013829 -1.021696,0.2025101 -1.532934,0.3033931 -0.468156,0.2504213 -0.936543,0.5005828 -1.405189,0.7504991 -0.292504,0.3036493 -0.58524,0.6070303 -0.878244,0.9101793 -0.345731,0.138643 -0.691699,0.27703 -1.037924,0.41517 0.191871,-0.164756 0.383484,-0.329756 0.57485,-0.49501 z"
       sodipodi:nodetypes="ccccccccccccccccc" /><path
       style="fill:#000000;fill-opacity:1;stroke:#56ff00;stroke-width:0;stroke-dasharray:none;stroke-opacity:1"
       d="m 12.98491,8.2262952 c 0.279376,-0.1465055 0.928743,-0.3700582 1.660676,-0.4684984 0.731934,-0.09844 1.546289,-0.071827 2.174391,0.05333 0.628103,0.125157 1.069868,0.3487008 1.426488,0.5563145 0.35662,0.2076138 0.628066,0.3992232 0.697157,0.5348318 0.06909,0.1356085 -0.06397,0.2154457 -0.258168,0.1224464 C 18.491258,8.93172 18.235774,8.665591 17.953697,8.4739027 17.67162,8.2822144 17.362909,8.1651176 16.99828,8.0985317 c -0.364629,-0.066586 -0.785113,-0.082554 -1.194977,-0.077243 -0.409865,0.00531 -0.809059,0.031923 -1.165687,0.061195 -0.356628,0.029272 -0.670661,0.061207 -0.920884,0.1197435 -0.250223,0.058536 -0.436513,0.1436974 -0.564249,0.1995863 -0.127736,0.055889 -0.196926,0.082501 -0.276696,0.061341 -0.07977,-0.02116 -0.170252,-0.090352 0.109123,-0.2368581 z"
       id="path1061"
       inkscape:path-effect="#path-effect1063"
       inkscape:original-d="m 12.614771,8.3033932 c 0.649618,-0.223303 1.298985,-0.4468558 1.948103,-0.6706588 0.814638,0.026864 1.628993,0.053477 2.443114,0.07984 0.442042,0.2238074 0.883807,0.4473513 1.325349,0.6706587 0.271713,0.1918706 0.54316,0.38348 0.814372,0.5748504 -0.13282,0.080092 -0.265882,0.1599291 -0.399202,0.239521 C 18.491263,8.931715 18.235779,8.6655862 17.98004,8.3992014 17.671568,8.2823502 17.362858,8.1652532 17.053892,8.0479042 c -0.42025,-0.015718 -0.840734,-0.031686 -1.261477,-0.047904 -0.398959,0.026864 -0.798153,0.053477 -1.197604,0.07984 -0.313795,0.032187 -0.627828,0.064122 -0.942116,0.095809 -0.186048,0.085415 -0.372338,0.170576 -0.558882,0.255489 -0.06895,0.026864 -0.13814,0.053477 -0.207585,0.07984 -0.09024,-0.068947 -0.180722,-0.13814 -0.271457,-0.207585 z"
       sodipodi:nodetypes="cccccccccccccc" /><path
       style="fill:#000000;fill-opacity:1;stroke:#56ff00;stroke-width:0;stroke-dasharray:none;stroke-opacity:1"
       d="m 13.978478,11.972501 c -0.263506,0.327285 -0.843118,0.839149 -1.102819,2.502871 -0.2597,1.663722 -0.199483,4.47892 -0.0075,6.710833 0.191978,2.231912 0.51565,3.880383 0.880767,5.205226 0.365117,1.324843 0.77159,2.325969 0.925865,2.860248 0.154275,0.534279 0.05642,0.602023 -0.207012,0.05644 -0.263435,-0.545581 -0.692489,-1.704781 -1.095232,-3.101137 -0.402742,-1.396357 -0.779106,-3.029774 -1.004957,-4.689602 -0.225851,-1.659829 -0.301123,-3.345936 -0.301136,-4.738534 -1.3e-5,-1.392598 0.07526,-2.491578 0.334954,-3.327226 0.259695,-0.835648 0.703803,-1.40772 1.023832,-1.712617 0.320028,-0.304897 0.515736,-0.342533 0.639897,-0.289671 0.124162,0.05286 0.176853,0.195881 -0.08665,0.523166 z"
       id="path1065"
       inkscape:path-effect="#path-effect1067"
       inkscape:original-d="m 14.294566,11.787936 c -0.579361,0.512114 -1.158972,1.023979 -1.738833,1.535593 0.06047,2.81556 0.120688,5.630758 0.180657,8.445763 0.323936,1.648787 0.647608,3.297258 0.971037,4.945513 0.406739,1.001417 0.813211,2.002543 1.219442,3.00344 -0.09761,0.068 -0.195463,0.135743 -0.29357,0.20324 -0.428821,-1.158995 -0.857875,-2.318195 -1.287188,-3.477667 -0.376128,-1.633232 -0.752492,-3.266649 -1.129113,-4.900349 -0.07503,-1.685925 -0.150298,-3.372033 -0.225822,-5.058425 0.07553,-1.098774 0.150799,-2.197755 0.225822,-3.297008 0.444377,-0.571846 0.888486,-1.143918 1.332353,-1.716252 0.195967,-0.03739 0.391676,-0.07502 0.587139,-0.112911 0.05294,0.143274 0.105634,0.286292 0.158076,0.429063 z" /></g><g
     inkscape:groupmode="layer"
     id="layer1"
     inkscape:label="Layer 1"
     style="display:inline"><path
       d="m 5.7664671,14.25106 c 0,3.585938 0.9073495,9.286837 2.3493807,11.471886 1.8166171,2.999318 2.5341722,4.236183 4.4095382,4.488506 1.066905,0.143548 1.756441,0.173777 2.464634,-0.273328 0.462428,-0.291947 -0.231251,-1.08377 0.253119,-1.24002 -0.505434,1.151759 -0.05669,1.534992 0.715319,1.692615 0.484375,0.15625 1.814028,0.122258 2.360903,0.122258 0.90625,0 1.745408,-0.606365 2.1439,-1.5436 0.433873,-1.020452 0.516685,-3.218797 1.055327,-4.514035 1.332772,-2.490761 1.840693,-3.878539 1.840693,-7.042602 0,-3.691406 -0.205721,-6.592378 -4.02994,-6.592378 -1.027344,-3e-6 -1.305903,-0.260981 -2.173091,0.145269 -0.0039,-0.02734 -0.02344,-0.07422 -0.03125,-0.125 0.220223,-1.1481846 -0.33238,-2.8878874 0.05812,-4.5337081 0.516878,-2.1784753 2.173171,-3.7692484 2.173171,-3.7692484 L 17.075724,2.1057351 16.136727,1.2028443 c 0,0 -0.895453,1.8246884 -1.312538,4.1149721 C 14.407104,7.6081 14.53226,9.9647773 14.018588,10.869074 9.5622073,10.441911 5.8111805,10.515958 5.7664671,14.25106 Z m 3.3205364,-3.077212 c 0.2831487,-0.120874 4.1727525,-0.121669 5.1709185,0.629732 l 1.199164,1.233845 0.65625,-1.010292 c 0.886719,-0.746094 2.052323,-0.541007 3.353104,-0.541007 2.804688,0 3.523413,3.393649 3.298031,5.926611 -0.223553,2.512405 -0.744638,4.973078 -1.788486,6.784681 -0.545292,1.494075 -0.884087,3.941704 -1.287799,4.74582 -0.574008,1.143315 -2.163532,1.10267 -2.358845,1.10267 -0.328125,0 -1.083828,-0.186335 -1.384605,-0.283995 -0.6875,-0.222656 -0.128123,-1.436228 -0.815619,-1.213572 -0.300781,0.09766 -0.353886,0.922717 -0.682011,0.922717 -0.269531,0 -1.988907,0.174134 -2.740706,-0.243139 -1.077173,-0.597867 -2.3501134,-2.48097 -3.0940119,-3.583134 -1.2641103,-1.872911 -2.0866154,-5.814648 -2.0866154,-8.814648 0,-2.542969 -0.7919139,-4.224854 2.5612308,-5.656289 z"
       id="path2"
       sodipodi:nodetypes="ccssccsscssccscccsccscccsscssccsssss" /></g></svg>
