<?xml version="1.0"?>
<svg width="512" height="512" xmlns="http://www.w3.org/2000/svg" xmlns:svg="http://www.w3.org/2000/svg">
 <g class="layer">
  <title>Layer 1</title>
  <path d="m266.95,18.34c-3.95,0.02 -10.48,1.91 -20.56,8.83c-7.3,40.94 -0.86,56.59 5.88,70.13c1.24,0.04 2.48,0.06 3.73,0.06c1.67,0 3.32,-0.04 4.96,-0.1c-0.68,-9.13 -3.08,-16.48 -2.7,-27.44c0.4,-11.67 4.89,-25.83 17.05,-47.04c-1.84,-2.04 -3.73,-3.65 -6.03,-4.2c-0.65,-0.15 -1.42,-0.25 -2.33,-0.24zm9.29,54c0.13,6.7 2.01,13.31 2.67,22.95c6.93,-1.34 12.86,-3.29 17.08,-5.71c-0.22,8.77 -18.06,20.75 -39.99,20.75c-21.93,0 -39.77,-11.98 -39.99,-20.75c3.93,2.25 9.35,4.09 15.66,5.41c-2.05,-5.51 -3.86,-11.98 -5,-19.73c-31.96,12.79 -54.19,51.44 -66.67,138.82c-144,160 0,280.84 96,279.57c96,0.68 240,-119.57 96,-279.57c-13.63,-95.44 -38.89,-132.78 -75.76,-141.74zm-66.84,51.83c-9.33,19.17 -8.81,83.42 2.82,89.56c-21.74,23.22 -92.49,128.85 -52.22,224.35c-32,-32 -68.22,-128 27.78,-224c-2.35,-36.07 11.17,-83.7 21.62,-89.91z" fill="#000000" id="svg_2" transform="matrix(1 0 0 1 0 0)"/>
 </g>
</svg>